<?xml version="1.0" ?><!DOCTYPE svg  PUBLIC '-//W3C//DTD SVG 1.1//EN'  'http://www.w3.org/Graphics/SVG/1.1/DTD/svg11.dtd'><svg enable-background="new 0 0 100 100" height="100px" id="Layer_1" version="1.1" viewBox="0 0 100 100" width="100px" xml:space="preserve" xmlns="http://www.w3.org/2000/svg" xmlns:xlink="http://www.w3.org/1999/xlink"><g><circle cx="50" cy="50" fill="#43619B" r="45"/><path clip-rule="evenodd" d="M58.38,31.763c0,2.092,0,4.143,0,6.247c-0.484,0-0.953,0-1.423,0   c-0.868,0-1.735-0.005-2.602,0.001c-0.955,0.008-1.586,0.505-1.629,1.441c-0.061,1.351-0.015,2.705-0.015,4.108   c1.928,0,3.834,0,5.778,0c-0.225,2.178-0.442,4.3-0.664,6.466c-1.717,0-3.403,0-5.127,0c0,6.107,0,12.166,0,18.254   c-2.546,0-5.051,0-7.605,0c0-6.083,0-12.144,0-18.248c-1.216,0-2.386,0-3.584,0c0-2.161,0-4.279,0-6.457c1.179,0,2.356,0,3.586,0   c0-0.221-0.001-0.383,0.001-0.546c0.015-1.51-0.054-3.025,0.064-4.526c0.192-2.448,1.166-4.502,3.381-5.794   c1.138-0.665,2.394-0.948,3.69-0.971c1.984-0.037,3.97-0.004,5.953,0C58.24,31.738,58.293,31.751,58.38,31.763z" fill="#FFFFFF" fill-rule="evenodd"/></g></svg>
