<?xml version="1.0" ?><!DOCTYPE svg  PUBLIC '-//W3C//DTD SVG 1.1//EN'  'http://www.w3.org/Graphics/SVG/1.1/DTD/svg11.dtd'><svg enable-background="new 0 0 100 100" height="100px" id="Layer_1" version="1.1" viewBox="0 0 100 100" width="100px" xml:space="preserve" xmlns="http://www.w3.org/2000/svg" xmlns:xlink="http://www.w3.org/1999/xlink"><g><circle cx="50" cy="50.001" fill="#31C139" r="45"/><polygon clip-rule="evenodd" fill="#FFFFFF" fill-rule="evenodd" points="49.991,27.567 49.992,27.552 50.009,27.558  "/><path clip-rule="evenodd" d="M57.289,59.009c-0.798,0.58-1.529,1.182-2.326,1.676   c-1.468,0.91-3.08,1.398-4.811,1.539c-1.679,0.135-3.275-0.141-4.825-0.768c-2.005-0.814-3.619-2.131-4.942-3.826   c-0.786-1.008-1.384-2.115-1.833-3.311c-0.553-1.475-0.792-2.996-0.718-4.561c0.073-1.555,0.431-3.049,1.092-4.471   c0.834-1.793,2.002-3.334,3.533-4.576c1.609-1.305,3.445-2.152,5.512-2.438c1.244-0.17,2.481-0.105,3.709,0.174   c1.21,0.275,2.337,0.75,3.368,1.432c0.692,0.459,1.353,0.969,2.024,1.453c0.135-0.688,0.696-1.051,1.331-1.246   c1.501-0.465,2.712,0.26,2.725,1.9c0.025,3.395,0.002,6.791,0.007,10.188c0.003,1.971,0.021,3.941,0.036,5.912   c0.002,0.309-0.017,0.625,0.05,0.922c0.09,0.404,0.404,0.645,0.797,0.721c0.356,0.068,0.64-0.113,0.866-0.391   c0.901-1.115,1.434-2.41,1.867-3.76c0.447-1.389,0.734-2.811,0.83-4.264c0.056-0.852,0.059-1.709,0.034-2.562   c-0.051-1.793-0.437-3.521-1.128-5.178c-0.77-1.846-1.898-3.434-3.397-4.764c-1.035-0.92-2.134-1.75-3.358-2.391   c-0.731-0.383-1.511-0.67-2.27-1c-1.253-0.545-2.575-0.826-3.922-0.975c-0.749-0.084-1.509-0.092-2.263-0.09   c-1.872,0.008-3.679,0.385-5.421,1.061c-1.599,0.621-3.03,1.514-4.278,2.693c-1.071,1.014-2.009,2.133-2.775,3.4   c-1.113,1.834-1.868,3.801-2.219,5.916c-0.209,1.264-0.304,2.531-0.198,3.816c0.11,1.324,0.338,2.619,0.739,3.883   c0.393,1.24,0.87,2.447,1.632,3.508c0.632,0.879,1.254,1.783,2.014,2.543c0.744,0.746,1.629,1.361,2.502,1.965   c1.254,0.867,2.646,1.451,4.113,1.885c1.661,0.488,3.347,0.727,5.07,0.658c1.484-0.057,2.922-0.344,4.312-0.914   c0.974-0.402,1.84-0.332,2.553,0.502c0.646,0.754,0.645,1.986,0.036,2.863c-0.498,0.719-1.233,1.074-2.024,1.334   c-1.284,0.42-2.605,0.676-3.959,0.686c-1.221,0.01-2.447,0.033-3.661-0.07c-1.527-0.131-3.023-0.486-4.484-0.965   c-2.383-0.779-4.53-1.979-6.483-3.559c-1.341-1.086-2.454-2.369-3.429-3.768c-1.676-2.41-2.696-5.092-3.187-7.986   c-0.252-1.488-0.389-2.99-0.322-4.484c0.117-2.609,0.635-5.15,1.694-7.559c0.834-1.898,1.93-3.629,3.316-5.164   c1.167-1.291,2.487-2.412,3.945-3.369c1.511-0.992,3.113-1.816,4.833-2.352c1.204-0.377,2.45-0.654,3.697-0.838   c1.148-0.168,2.325-0.227,3.487-0.201c2.938,0.068,5.743,0.762,8.387,2.047c1.942,0.943,3.69,2.174,5.251,3.68   c1.029,0.994,1.935,2.092,2.687,3.293c0.623,0.992,1.151,2.062,1.574,3.156c0.796,2.061,1.295,4.203,1.459,6.414   c0.241,3.258-0.105,6.438-1.285,9.502c-0.844,2.186-2.084,4.096-3.916,5.596c-1.304,1.07-2.771,1.264-4.323,0.754   c-1.812-0.594-2.934-1.852-3.251-3.754C57.279,60.028,57.31,59.511,57.289,59.009z M57.323,50.448   c-0.083-0.57-0.148-1.141-0.25-1.707c-0.372-2.09-1.485-3.682-3.278-4.799c-1.032-0.641-2.159-1.037-3.379-1.088   c-0.816-0.035-1.649-0.092-2.45,0.023c-1.96,0.289-3.554,1.195-4.687,2.898c-0.454,0.682-0.813,1.381-1.062,2.145   c-0.396,1.223-0.477,2.477-0.335,3.752c0.139,1.254,0.526,2.424,1.251,3.455c0.602,0.855,1.296,1.627,2.312,2.037   c0.464,0.186,0.886,0.49,1.359,0.643c0.999,0.324,2.024,0.422,3.087,0.346c1.491-0.104,2.846-0.539,4.078-1.367   c0.897-0.607,1.601-1.381,2.167-2.316C56.89,53.226,57.257,51.897,57.323,50.448z" fill="#FFFFFF" fill-rule="evenodd"/></g></svg>
