<?xml version="1.0" ?><!DOCTYPE svg  PUBLIC '-//W3C//DTD SVG 1.1//EN'  'http://www.w3.org/Graphics/SVG/1.1/DTD/svg11.dtd'><svg enable-background="new 0 0 100 100" height="100px" id="Layer_1" version="1.1" viewBox="0 0 100 100" width="100px" xml:space="preserve" xmlns="http://www.w3.org/2000/svg" xmlns:xlink="http://www.w3.org/1999/xlink"><g><circle cx="50" cy="50" fill="#00A500" r="45"/><g><path d="M50.006,30.274h-0.012v0c-10.875,0-19.721,8.849-19.721,19.726c0,4.314,1.392,8.315,3.756,11.562    l-2.458,7.329l7.583-2.423c3.118,2.064,6.84,3.259,10.852,3.259c10.874,0,19.72-8.849,19.72-19.726    C69.726,39.123,60.88,30.274,50.006,30.274z M61.483,58.129c-0.476,1.345-2.365,2.459-3.873,2.784    c-1.03,0.219-2.377,0.394-6.909-1.485c-5.797-2.401-9.529-8.292-9.82-8.675c-0.277-0.382-2.341-3.119-2.341-5.949    c0-2.83,1.437-4.209,2.017-4.801c0.476-0.487,1.264-0.707,2.018-0.707c0.243,0,0.464,0.011,0.66,0.022    c0.58,0.024,0.87,0.059,1.253,0.975c0.476,1.148,1.634,3.977,1.772,4.267c0.141,0.291,0.279,0.684,0.083,1.067    c-0.188,0.395-0.349,0.569-0.639,0.905c-0.29,0.337-0.568,0.592-0.858,0.951c-0.267,0.312-0.566,0.65-0.231,1.229    c0.336,0.568,1.496,2.458,3.2,3.977c2.203,1.96,3.988,2.586,4.625,2.853c0.476,0.197,1.044,0.151,1.392-0.22    c0.441-0.476,0.985-1.264,1.543-2.041c0.394-0.557,0.892-0.627,1.414-0.43c0.533,0.185,3.35,1.577,3.93,1.867    c0.579,0.29,0.962,0.429,1.102,0.673C61.959,55.636,61.959,56.784,61.483,58.129z" fill="#FFFFFF"/></g></g></svg>
