<svg xmlns="http://www.w3.org/2000/svg" viewBox="0 0 1000 1000"><path fill="#C62828" stroke="#FFF" d="M705 13c-4 2-52 49-108 105L496 219l-80-79c-69-69-80-80-87-81-14-3-24 1-33 10s-12 19-9 32c1 9 11 20 98 107l46 47H301c-141 0-143 0-166 12-15 8-34 25-42 40-14 27-13 11-13 314 0 304-1 288 13 315 14 25 43 46 72 52 8 1 125 2 336 2 353 0 337 0 363-12 14-8 36-30 44-44 13-26 12-12 12-312 0-302 1-286-13-313-9-15-28-34-43-42-24-12-26-12-170-12H560l96-96C759 55 756 59 753 38c-1-11-7-18-18-24-11-5-21-5-30-1zm110 557v210H185V360h630v210zM395 885v35h-70v-70h70v35zm140 0v35h-70v-70h70v35zm140 0v35h-70v-70h70v35z"/></svg>