<svg version="1.0" xmlns="http://www.w3.org/2000/svg" viewBox="0 0 1280 1066"><path fill="#C62828" d="m842 1-8 4-133 132-129 129-86-85c-91-91-87-88-97-88-7 0-14 5-18 12-2 5-3 13 0 18l80 83 80 79H309l-230 1c-11 1-18 3-28 8s-15 8-23 16a92 92 0 0 0-25 42l-2 7-1 312c0 344 0 321 6 338 5 12 10 20 20 30s19 16 31 21c17 6-30 6 583 6s566 1 583-6c12-5 21-11 31-20 9-10 15-19 20-31 6-17 6 5 6-334l-1-316c-7-35-31-61-66-71l-9-3H612l124-125C839 58 861 34 864 30c3-7 4-18 0-23-5-6-13-9-22-6zm58 374a101 101 0 0 1 84 85l1 220v212l-3 9-7 18a99 99 0 0 1-66 55l-8 2H173l-9-2c-19-5-32-12-45-26a97 97 0 0 1-31-65V467c4-47 37-83 83-92 11-2 717-2 729 0zm235 171c20 5 38 23 43 44 2 7 2 19 0 26a59 59 0 0 1-71 43c-16-4-31-15-37-29a58 58 0 0 1 65-84zm-2 145c16 3 33 16 40 31 5 10 6 16 6 27 0 16-6 30-18 42a58 58 0 1 1-67-94c10-6 27-8 39-6z"/></svg>
